# xmcd
#
# Track frame offsets:
# 150
# 14030
# 26966
# 40158
# 54190
# 68915
# 81671
# 94304
# 108244
# 117992
# 134388
# 143491
# 163090
#
# Disc length: 2393 seconds
#
#
# Revision: 1
# Processed by: cddbd v1.5.2PL0 Copyright (c) Steve Scherf et al.
# Submitted via: FreeRIP 2.951 
#
DISCID=b709570d
DTITLE=Batô e Fernando - Chorando a Mágoa
DYEAR=2006
DGENRE=Moda de Viola
TTITLE0=Casal sem Juizo
TTITLE1=Encruzilhada
TTITLE2=O Tombo
TTITLE3=Passou da Conta
TTITLE4=Nunca mais vou te Esquecer
TTITLE5=Fechado para Balanço
TTITLE6=Misterios do Amor
TTITLE7=Abrindo o Jogo
TTITLE8=Na Fogueira do Desejo
TTITLE9=Coração de Lua
TTITLE10=Chorando a Mágoa
TTITLE11=Princesa Morena
TTITLE12=Peão Centenário
EXTD=
EXTT0=
EXTT1=
EXTT2=
EXTT3=
EXTT4=
EXTT5=
EXTT6=
EXTT7=
EXTT8=
EXTT9=
EXTT10=
EXTT11=
EXTT12=
PLAYORDER=
